<svg viewBox="0 0 22 20" fill="none" xmlns="http://www.w3.org/2000/svg" data-sentry-element="svg" data-sentry-component="FAQIcon" data-sentry-source-file="Icon.tsx"><g fill="currentColor" data-sentry-element="g" data-sentry-source-file="Icon.tsx"><path d="M16.0145 5.60607C15.5332 5.60607 15.2497 5.88688 15.2497 6.48356V8.80896C15.2497 9.21262 15.3699 9.4671 15.602 9.59873V9.21262C15.602 8.92303 15.8082 8.80018 16.0145 8.80018C16.2207 8.80018 16.427 8.92303 16.427 9.21262V9.59873C16.6504 9.4671 16.7879 9.21262 16.7879 8.80896V6.48356C16.7879 5.88688 16.4957 5.60607 16.0145 5.60607Z" data-sentry-element="path" data-sentry-source-file="Icon.tsx"></path><path d="M9.92161 8.42284H11.1763L10.549 6.07112L9.92161 8.42284Z" data-sentry-element="path" data-sentry-source-file="Icon.tsx"></path><path d="M17.0586 0H4.94141C2.21671 0 0 2.26353 0 5.04577V9.87217C0 12.4315 1.8755 14.5518 4.29688 14.8752V19.3419C4.29688 19.6081 4.45388 19.8481 4.69477 19.9499C4.77447 19.9836 4.85826 20 4.94128 20C5.10898 20 5.27386 19.9331 5.39713 19.8072L10.1853 14.9179H17.0586C19.7833 14.9179 22 12.6544 22 9.87217V5.04577C22 2.26353 19.7833 0 17.0586 0ZM6.92231 7.08905C7.18012 7.08905 7.32622 7.34353 7.32622 7.62434C7.32622 7.86127 7.20586 8.14208 6.92231 8.14208H5.62469V10.4061C5.62469 10.6869 5.2895 10.8273 4.95438 10.8273C4.61918 10.8273 4.28407 10.6869 4.28407 10.4061V4.83385C4.28407 4.55304 4.57621 4.41264 4.86845 4.41264H7.85039C8.13398 4.41264 8.2543 4.71977 8.2543 5.00058C8.2543 5.32527 8.1082 5.60607 7.85039 5.60607H5.62465V7.08905H6.92231ZM12.1903 10.8273C11.9755 10.8273 11.8036 10.7571 11.7521 10.5728L11.4599 9.47588H9.64661L9.35447 10.5728C9.30286 10.7571 9.13099 10.8273 8.91614 10.8273C8.54661 10.8273 8.05677 10.5903 8.05677 10.2656C8.05677 10.2393 8.06541 10.2042 8.07396 10.1691L9.67235 4.8163C9.76693 4.50917 10.1536 4.35999 10.5489 4.35999C10.9442 4.35999 11.3309 4.50917 11.4255 4.8163L13.0324 10.1691C13.041 10.2042 13.0496 10.2393 13.0496 10.2656C13.0497 10.5903 12.5599 10.8273 12.1903 10.8273ZM18.1285 8.80896C18.1285 10.1428 17.4066 10.7307 16.4269 10.8536V11.3626C16.4269 11.6434 16.2207 11.7838 16.0144 11.7838C15.8082 11.7838 15.6019 11.6434 15.6019 11.3626V10.8536C14.6223 10.7307 13.909 10.1428 13.909 8.80896V6.48356C13.909 4.96544 14.8285 4.41264 16.0144 4.41264C17.2003 4.41264 18.1284 4.96548 18.1284 6.48356L18.1285 8.80896Z" data-sentry-element="path" data-sentry-source-file="Icon.tsx"></path></g></svg>