<svg width="16" height="19" viewBox="0 0 18 20" fill="none" xmlns="http://www.w3.org/2000/svg" data-sentry-element="svg" data-sentry-component="ArrowSVG" data-sentry-source-file="ArrowSVG.tsx" style="transform: translate(-50%, -100%); opacity: 1;"><mask id="path-1-outside-1_559_1533" maskUnits="userSpaceOnUse" x="-1" y="0" width="20" height="21" fill="black" data-sentry-element="mask" data-sentry-source-file="ArrowSVG.tsx"><rect fill="white" x="-1" width="20" height="21" data-sentry-element="rect" data-sentry-source-file="ArrowSVG.tsx"></rect><path fill-rule="evenodd" clip-rule="evenodd" d="M6.19568 7L4.18233 3.83192C3.66534 3.01843 4.30928 2 5.34062 2H12.6593C13.7088 2 14.3501 3.05089 13.7966 3.86376L11.6611 7H14.123C15.5923 7 16.4901 8.57634 15.7152 9.79564L10.4155 18.1349C9.66932 19.3091 7.91096 19.283 7.20166 18.0872L2.25526 9.74788C1.53148 8.52764 2.43299 7 3.87686 7H6.19568Z" data-sentry-element="path" data-sentry-source-file="ArrowSVG.tsx"></path></mask><path fill-rule="evenodd" clip-rule="evenodd" d="M6.19568 7L4.18233 3.83192C3.66534 3.01843 4.30928 2 5.34062 2H12.6593C13.7088 2 14.3501 3.05089 13.7966 3.86376L11.6611 7H14.123C15.5923 7 16.4901 8.57634 15.7152 9.79564L10.4155 18.1349C9.66932 19.3091 7.91096 19.283 7.20166 18.0872L2.25526 9.74788C1.53148 8.52764 2.43299 7 3.87686 7H6.19568Z" fill="white" data-sentry-element="path" data-sentry-source-file="ArrowSVG.tsx"></path><path d="M4.18233 3.83192L5.87031 2.7592L5.8703 2.75919L4.18233 3.83192ZM6.19568 7V9H9.83641L7.88365 5.92727L6.19568 7ZM13.7966 3.86376L12.1435 2.73807L12.1434 2.73811L13.7966 3.86376ZM11.6611 7L10.0079 5.87436L7.87967 9H11.6611V7ZM15.7152 9.79564L14.0273 8.72287L14.0272 8.72291L15.7152 9.79564ZM10.4155 18.1349L8.72757 17.0621L8.72753 17.0622L10.4155 18.1349ZM7.20166 18.0872L5.4815 19.1075L5.48151 19.1075L7.20166 18.0872ZM2.25526 9.74788L3.97543 8.72758L3.97543 8.72757L2.25526 9.74788ZM2.49436 4.90465L4.50771 8.07273L7.88365 5.92727L5.87031 2.7592L2.49436 4.90465ZM5.34062 0C4.14507 0 3.08542 0.60101 2.49041 1.54207C1.88433 2.50063 1.78875 3.79436 2.49436 4.90465L5.8703 2.75919C6.05893 3.056 6.02681 3.43376 5.87129 3.67973C5.72684 3.9082 5.50482 4 5.34062 4V0ZM12.6593 0H5.34062V4H12.6593V0ZM15.4497 4.98945C16.2016 3.88529 16.1363 2.56843 15.5363 1.58525C14.9478 0.6208 13.8754 0 12.6593 0V4C12.4927 4 12.2657 3.90465 12.1218 3.66886C12.0511 3.55295 11.9989 3.39814 12 3.21726C12.0012 3.02801 12.0609 2.85932 12.1435 2.73807L15.4497 4.98945ZM13.3143 8.12564L15.4497 4.9894L12.1434 2.73811L10.0079 5.87436L13.3143 8.12564ZM14.123 5H11.6611V9H14.123V5ZM17.4032 10.8684C19.0699 8.2459 17.0843 5 14.123 5V9C14.1247 9 14.1018 8.9984 14.0733 8.98136C14.05 8.96737 14.0337 8.94957 14.0228 8.9304C14.0119 8.9112 13.9997 8.87882 14 8.83289C14.0003 8.77994 14.0172 8.73865 14.0273 8.72287L17.4032 10.8684ZM12.1035 19.2076L17.4032 10.8684L14.0272 8.72291L8.72757 17.0621L12.1035 19.2076ZM5.48151 19.1075C6.95315 21.5885 10.5586 21.6387 12.1035 19.2075L8.72753 17.0622C8.73777 17.0461 8.75968 17.0246 8.78587 17.0112C8.80692 17.0004 8.82004 16.9999 8.82446 17C8.82888 17.0001 8.8423 17.001 8.86354 17.0127C8.88987 17.0272 8.91168 17.0498 8.92181 17.0668L5.48151 19.1075ZM0.535097 10.7682L5.4815 19.1075L8.92183 17.0669L3.97543 8.72758L0.535097 10.7682ZM3.87686 5C0.966316 5 -1.02164 8.14365 0.5351 10.7682L3.97543 8.72757C3.98562 8.74476 4.00083 8.78597 3.99997 8.83737C3.99921 8.88221 3.98683 8.91384 3.97563 8.93281C3.96446 8.95175 3.94825 8.96892 3.9256 8.98222C3.89817 8.99834 3.87605 9 3.87686 9V5ZM6.19568 5H3.87686V9H6.19568V5Z" fill="#6D6D6D" mask="url(#path-1-outside-1_559_1533)" data-sentry-element="path" data-sentry-source-file="ArrowSVG.tsx"></path></svg>