<svg viewBox="0 0 24 24" fill="none" xmlns="http://www.w3.org/2000/svg" data-sentry-element="svg" data-sentry-component="DealsIconOutlined" data-sentry-source-file="Icon.tsx"><path d="M7.5 3.06729C4.23742 4.71411 2 8.09576 2 12C2 17.5228 6.47715 22 12 22C17.5228 22 22 17.5228 22 12C22 8.09576 19.7626 4.71411 16.5 3.06729" stroke="currentColor" stroke-width="1.8" stroke-linecap="round" data-sentry-element="path" data-sentry-source-file="Icon.tsx"></path><path d="M8.6822 7C7.06551 8.07492 6 9.91303 6 12C6 15.3137 8.68629 18 12 18C15.3137 18 18 15.3137 18 12C18 9.91303 16.9345 8.07492 15.3178 7" stroke="currentColor" stroke-width="1.8" stroke-linecap="round" data-sentry-element="path" data-sentry-source-file="Icon.tsx"></path><path d="M13.8534 2H13.2857H10.7143H10.1466C9.71002 2 9.48314 2.5203 9.78021 2.84023L11.6336 4.83619C11.8314 5.04922 12.1686 5.04922 12.3664 4.83619L14.2198 2.84023C14.5169 2.5203 14.29 2 13.8534 2Z" fill="currentColor" data-sentry-element="path" data-sentry-source-file="Icon.tsx"></path></svg>