<svg viewBox="0 0 24 24" fill="none" xmlns="http://www.w3.org/2000/svg" data-sentry-element="svg" data-sentry-component="PacksIconOutlined" data-sentry-source-file="Icon.tsx"><path d="M4 4.15385L4 16.8462C4 17.4834 4.70355 18 5.57143 18L13.4286 18C14.2964 18 15 17.4834 15 16.8462L15 4.15385C15 3.5166 14.2964 3 13.4286 3L5.57143 3C4.70355 3 4 3.5166 4 4.15385Z" stroke="currentColor" stroke-width="1.8" stroke-linecap="round" stroke-linejoin="round" data-sentry-element="path" data-sentry-source-file="Icon.tsx"></path><path d="M8.08771 19.0127C7.98916 19.5993 8.54002 20.1807 9.3181 20.3115L16.3622 21.495C17.1403 21.6257 17.8509 21.2562 17.9495 20.6697L19.9123 8.98725C20.0109 8.4007 19.46 7.81924 18.6819 7.68851L15.1599 7.09675" stroke="currentColor" stroke-width="1.8" stroke-linecap="round" stroke-linejoin="round" data-sentry-element="path" data-sentry-source-file="Icon.tsx"></path></svg>