<svg viewBox="0 0 16 16" fill="none" xmlns="http://www.w3.org/2000/svg" data-sentry-element="svg" data-sentry-component="SearchIcon" data-sentry-source-file="Icon.tsx"><path fill-rule="evenodd" clip-rule="evenodd" d="M10.2249 11.1723C9.21863 11.9739 7.94399 12.4529 6.55747 12.4529C3.30405 12.4529 0.666626 9.81548 0.666626 6.56205C0.666626 3.30863 3.30405 0.671204 6.55747 0.671204C9.81089 0.671204 12.4483 3.30863 12.4483 6.56205C12.4483 7.94857 11.9693 9.22321 11.1677 10.2295L14.8651 13.9269C15.1255 14.1873 15.1255 14.6094 14.8651 14.8697C14.6048 15.1301 14.1827 15.1301 13.9223 14.8697L10.2249 11.1723ZM1.99996 6.56205C1.99996 4.04501 4.04043 2.00454 6.55747 2.00454C9.07451 2.00454 11.115 4.04501 11.115 6.56205C11.115 7.78993 10.6294 8.90439 9.83981 9.72389L9.7193 9.8444C8.8998 10.634 7.78534 11.1196 6.55747 11.1196C4.04043 11.1196 1.99996 9.0791 1.99996 6.56205Z" fill="currentColor" stroke="currentColor" stroke-miterlimit="10" stroke-linecap="square" data-sentry-element="path" data-sentry-source-file="Icon.tsx"></path></svg>