<svg viewBox="0 0 21 16" fill="none" xmlns="http://www.w3.org/2000/svg" data-sentry-element="svg" data-sentry-component="ViewIcon" data-sentry-source-file="Icon.tsx"><path fill-rule="evenodd" clip-rule="evenodd" d="M10.2015 15.9999C8.17738 16.0075 6.19172 15.4472 4.47046 14.3825C2.74883 13.3179 1.36052 11.7915 0.463115 9.97718C-0.15429 8.73041 -0.15429 7.26686 0.463115 6.02009C1.67464 3.59605 3.74642 1.71115 6.27399 0.733299C8.80128 -0.244433 11.6026 -0.244433 14.1295 0.733299C16.657 1.71103 18.7288 3.59601 19.9404 6.02009C20.5578 7.26686 20.5578 8.73041 19.9404 9.97718C19.043 11.7915 17.6547 13.3179 15.9331 14.3825C14.2116 15.4471 12.2259 16.0075 10.202 15.9999H10.2015ZM2.19045 6.87906C1.83288 7.58259 1.83288 8.41472 2.19045 9.11825C2.91884 10.6182 4.0588 11.8802 5.47715 12.7569C6.89566 13.6336 8.53407 14.0888 10.2014 14.0695C11.8687 14.0888 13.5072 13.6336 14.9256 12.7569C16.344 11.8802 17.4839 10.6182 18.2123 9.11825C18.5699 8.41472 18.5699 7.58259 18.2123 6.87906C17.4839 5.37911 16.344 4.11716 14.9256 3.24044C13.5071 2.36372 11.8687 1.90855 10.2014 1.92778C8.53403 1.90855 6.89562 2.36372 5.47715 3.24044C4.0588 4.11716 2.91884 5.37911 2.19045 6.87906ZM10.2005 11.859C9.1766 11.859 8.19469 11.4523 7.47064 10.7283C6.7466 10.0042 6.3399 9.02232 6.3399 7.99838C6.3399 6.97445 6.7466 5.99254 7.47064 5.2685C8.19469 4.54445 9.1766 4.13776 10.2005 4.13776C11.2245 4.13776 12.2064 4.54445 12.9304 5.2685C13.6545 5.99254 14.0612 6.97445 14.0612 7.99838C14.0612 9.02232 13.6545 10.0042 12.9304 10.7283C12.2064 11.4523 11.2245 11.859 10.2005 11.859Z" fill="currentColor" data-sentry-element="path" data-sentry-source-file="Icon.tsx"></path></svg>